#!OML:ASF H:\Dans Jumps\Project 1\Capture day 1\Session 1\subject.ASF
:FULLY-SPECIFIED
:DEGREES
547
root 1.03762 17.6749 13.0444 6.16302 2.72537 -2.35834
lowerback -5.84291 -0.95655 0.660558
upperback 0.245309 -1.37708 1.56629
thorax 3.55313 -0.686621 1.12345
lowerneck -9.06658 -4.58089 -4.18657
upperneck 7.96216 -6.07451 4.75425
head 4.13326 -2.87263 1.74586
rclavicle 7.05686e-015 -7.35503e-015
rhumerus -26.2105 -18.6273 -81.7513
rradius 22.2515
rwrist 40.8535
rhand -18.5293 -25.9513
rfingers 7.12502
rthumb 7.75951 -55.789
lclavicle 7.05686e-015 -7.35503e-015
lhumerus -23.6585 -1.39103 90.875
lradius 17.9809
lwrist 0.10719
lhand -24.1242 -5.43301
lfingers 7.12502
lthumb 2.35739 24.5337
rfemur -12.4743 -3.38694 21.6111
rtibia 20.3872
rfoot -13.6928 2.05613
rtoes 17.698
lfemur -6.71348 8.11624 -16.8889
ltibia 14.898
lfoot -11.2324 7.13419
ltoes -6.24952
548
root 1.03777 17.6747 13.0426 6.15767 2.7115 -2.36517
lowerback -5.84434 -0.953714 0.660117
upperback 0.244821 -1.37327 1.56607
thorax 3.55337 -0.684736 1.12378
lowerneck -9.01188 -4.5672 -4.1733
upperneck 7.90246 -6.05507 4.73107
head 4.10399 -2.86515 1.73976
rclavicle 1.30949e-014 -1.09332e-015
rhumerus -26.1955 -18.588 -81.782
rradius 22.2882
rwrist 40.7879
rhand -18.5319 -25.9364
rfingers 7.12502
rthumb 7.75698 -55.7741
lclavicle 1.30949e-014 -1.09332e-015
lhumerus -23.6201 -1.36649 90.8482
lradius 18.0409
lwrist 0.149827
lhand -24.1455 -5.46264
lfingers 7.12502
lthumb 2.3368 24.5043
rfemur -12.4778 -3.3825 21.6183
rtibia 20.3877
rfoot -13.6844 2.05837
rtoes 17.6691
lfemur -6.71761 8.12335 -16.8835
ltibia 14.9076
lfoot -11.2283 7.14561
ltoes -6.27113
549
root 1.03804 17.6745 13.041 6.15091 2.69992 -2.36719
lowerback -5.84848 -0.950578 0.655716
upperback 0.245497 -1.36879 1.56392
thorax 3.55638 -0.682566 1.12435
lowerneck -8.96663 -4.55249 -4.1565
upperneck 7.85376 -6.03461 4.70578
head 4.07944 -2.85692 1.7322
rclavicle -1.6524e-015 -1.32192e-014
rhumerus -26.183 -18.553 -81.8119
rradius 22.3228
rwrist 40.7198
rhand -18.5354 -25.9239
rfingers 7.12502
rthumb 7.75362 -55.7617
lclavicle -1.6524e-015 -1.32192e-014
lhumerus -23.587 -1.35875 90.8267
lradius 18.0976
lwrist 0.190326
lhand -24.1458 -5.5057
lfingers 7.12502
lthumb 2.33652 24.4612
rfemur -12.478 -3.39222 21.6202
rtibia 20.3884
rfoot -13.6778 2.06967
rtoes 17.6247
lfemur -6.71762 8.1283 -16.8833
ltibia 14.9155
lfoot -11.2254 7.15556
ltoes -6.28348
550
root 1.03839 17.6745 13.0396 6.1432 2.68918 -2.36708
lowerback -5.854 -0.948693 0.649474
upperback 0.248997 -1.36593 1.56189
thorax 3.56315 -0.681237 1.1259
lowerneck -8.94143 -4.53554 -4.13778
upperneck 7.81927 -6.01076 4.67575
head 4.06218 -2.84681 1.72255
rclavicle -7.0817e-015 9.54166e-015
rhumerus -26.1644 -18.525 -81.8411
rradius 22.3539
rwrist 40.6639
rhand -18.5301 -25.9222
rfingers 7.12502
rthumb 7.75875 -55.7599
lclavicle -7.0817e-015 9.54166e-015
lhumerus -23.5531 -1.36627 90.8113
lradius 18.1547
lwrist 0.253343
lhand -24.1276 -5.49319
lfingers 7.12502
lthumb 2.35414 24.4736
rfemur -12.477 -3.40085 21.6186
rtibia 20.3894
rfoot -13.6718 2.08373
rtoes 17.6053
lfemur -6.71442 8.13218 -16.8855
ltibia 14.9202
lfoot -11.2228 7.16247
ltoes -6.28182
551
root 1.03883 17.6744 13.0383 6.1336 2.67977 -2.36923
lowerback -5.86162 -0.947648 0.645972
upperback 0.255818 -1.36452 1.5612
thorax 3.57453 -0.680591 1.12711
lowerneck -8.93754 -4.51582 -4.11597
upperneck 7.80006 -5.98277 4.63926
head 4.05262 -2.83448 1.71012
rclavicle -7.15625e-015 -6.06293e-015
rhumerus -26.139 -18.5051 -81.8699
rradius 22.3793
rwrist 40.6161
rhand -18.5218 -25.9299
rfingers 7.12502
rthumb 7.76668 -55.7673
lclavicle -7.15625e-015 -6.06293e-015
lhumerus -23.5165 -1.4002 90.8043
lradius 18.2084
lwrist 0.344926
lhand -24.0899 -5.43524
lfingers 7.12502
lthumb 2.39056 24.5311
rfemur -12.4721 -3.41219 21.6191
rtibia 20.3885
rfoot -13.667 2.10017
rtoes 17.5824
lfemur -6.70834 8.13588 -16.8849
ltibia 14.9248
lfoot -11.2216 7.16817
ltoes -6.28176
552
root 1.03924 17.6744 13.0371 6.12453 2.67047 -2.36804
lowerback -5.86979 -0.948223 0.638149
upperback 0.26334 -1.36499 1.56054
thorax 3.58709 -0.680963 1.13058
lowerneck -8.94618 -4.49405 -4.09726
upperneck 7.79255 -5.95165 4.60282
head 4.04867 -2.82042 1.69804
rclavicle -2.39039e-014 -1.22253e-014
rhumerus -26.1082 -18.5029 -81.8958
rradius 22.3967
rwrist 40.5905
rhand -18.5103 -25.9416
rfingers 7.12502
rthumb 7.77781 -55.7785
lclavicle -2.39039e-014 -1.22253e-014
lhumerus -23.4793 -1.4469 90.8013
lradius 18.2578
lwrist 0.447019
lhand -24.0456 -5.33683
lfingers 7.12502
lthumb 2.43333 24.629
rfemur -12.4663 -3.41697 21.6155
rtibia 20.3851
rfoot -13.6606 2.11379
rtoes 17.5766
lfemur -6.70338 8.1384 -16.8879
ltibia 14.9306
lfoot -11.2207 7.17388
ltoes -6.27786
553
root 1.03961 17.6743 13.0359 6.11662 2.66012 -2.36898
lowerback -5.87961 -0.94993 0.631372
upperback 0.270793 -1.36716 1.56217
thorax 3.60056 -0.682177 1.13566
lowerneck -8.95898 -4.47124 -4.08543
upperneck 7.79133 -5.91844 4.5674
head 4.04748 -2.80538 1.68735
rclavicle -1.0312e-015 6.16232e-015
rhumerus -26.0766 -18.4989 -81.9205
rradius 22.4128
rwrist 40.5658
rhand -18.4967 -25.9576
rfingers 7.12502
rthumb 7.79095 -55.7941
lclavicle -1.0312e-015 6.16232e-015
lhumerus -23.443 -1.50489 90.8031
lradius 18.3051
lwrist 0.559406
lhand -24.0052 -5.21268
lfingers 7.12502
lthumb 2.4723 24.7527
rfemur -12.4585 -3.41189 21.6133
rtibia 20.3792
rfoot -13.6548 2.12332
rtoes 17.5957
lfemur -6.70045 8.1407 -16.8884
ltibia 14.9385
lfoot -11.222 7.17988
ltoes -6.27099
554
root 1.03989 17.6742 13.0347 6.11101 2.64799 -2.37351
lowerback -5.89063 -0.95207 0.627196
upperback 0.27761 -1.37015 1.56555
thorax 3.61405 -0.683772 1.141
lowerneck -8.9758 -4.44883 -4.0821
upperneck 7.79688 -5.8853 4.53723
head 4.04946 -2.79026 1.67947
rclavicle -1.75427e-014 -1.59028e-015
rhumerus -26.0437 -18.4964 -81.9446
rradius 22.4253
rwrist 40.5454
rhand -18.4802 -25.9736
rfingers 7.12502
rthumb 7.80684 -55.8094
lclavicle -1.75427e-014 -1.59028e-015
lhumerus -23.4078 -1.57414 90.8078
lradius 18.3488
lwrist 0.6749
lhand -23.9839 -5.10231
lfingers 7.12502
lthumb 2.49289 24.8629
rfemur -12.4534 -3.39934 21.6159
rtibia 20.3723
rfoot -13.6471 2.12464
rtoes 17.6099
lfemur -6.70108 8.14354 -16.8851
ltibia 14.9473
lfoot -11.2215 7.18895
ltoes -6.2764
555
root 1.0401 17.6742 13.0337 6.10902 2.63556 -2.37609
lowerback -5.90366 -0.954334 0.620484
upperback 0.281492 -1.3731 1.56881
thorax 3.62568 -0.685391 1.14763
lowerneck -8.98738 -4.42799 -4.09053
upperneck 7.80697 -5.85405 4.51644
head 4.05268 -2.77597 1.67626
rclavicle 6.65929e-015 6.26172e-015
rhumerus -26.0152 -18.5006 -81.9653
rradius 22.4353
rwrist 40.5314
rhand -18.4676 -25.9848
rfingers 7.12502
rthumb 7.81904 -55.8202
lclavicle 6.65929e-015 6.26172e-015
lhumerus -23.3766 -1.65423 90.8156
lradius 18.3871
lwrist 0.789791
lhand -23.9742 -5.02134
lfingers 7.12502
lthumb 2.50227 24.9437
rfemur -12.4518 -3.38531 21.6169
rtibia 20.3653
rfoot -13.6398 2.1237
rtoes 17.632
lfemur -6.70594 8.14778 -16.8842
ltibia 14.9568
lfoot -11.2213 7.1968
ltoes -6.27676
556
root 1.04022 17.6743 13.0326 6.10975 2.62208 -2.38085
lowerback -5.91613 -0.95622 0.615708
upperback 0.282656 -1.37565 1.57266
thorax 3.63416 -0.686776 1.15384
lowerneck -8.99891 -4.40806 -4.1074
upperneck 7.82232 -5.82388 4.50329
head 4.05803 -2.76204 1.67662
rclavicle -1.67352e-014 -4.87022e-015
rhumerus -25.9934 -18.4987 -81.9854
rradius 22.4492
rwrist 40.5125
rhand -18.4517 -25.9958
rfingers 7.12502
rthumb 7.83435 -55.8307
lclavicle -1.67352e-014 -4.87022e-015
lhumerus -23.3485 -1.72879 90.8212
lradius 18.4207
lwrist 0.879819
lhand -23.997 -5.00327
lfingers 7.12502
lthumb 2.48023 24.9621
rfemur -12.4558 -3.36511 21.6211
rtibia 20.3608
rfoot -13.6317 2.11603
rtoes 17.6558
lfemur -6.71207 8.15233 -16.8809
ltibia 14.9619
lfoot -11.2179 7.20434
ltoes -6.2784
557
root 1.04037 17.6744 13.0317 6.11214 2.61128 -2.38399
lowerback -5.93124 -0.957057 0.611239
upperback 0.281241 -1.37672 1.57423
thorax 3.64136 -0.687399 1.15765
lowerneck -9.01421 -4.38865 -4.11997
upperneck 7.84698 -5.79503 4.48873
head 4.06673 -2.74859 1.67561
rclavicle -9.34288e-015 4.96962e-016
rhumerus -25.9801 -18.5089 -82.0022
rradius 22.4607
rwrist 40.4974
rhand -18.4481 -25.9882
rfingers 7.12502
rthumb 7.83787 -55.8229
lclavicle -9.34288e-015 4.96962e-016
lhumerus -23.3253 -1.80277 90.8251
lradius 18.4444
lwrist 0.950768
lhand -24.028 -5.05996
lfingers 7.12502
lthumb 2.45027 24.9057
rfemur -12.4627 -3.35807 21.6246
rtibia 20.3581
rfoot -13.6247 2.11504
rtoes 17.6638
lfemur -6.71717 8.15628 -16.8794
ltibia 14.9628
lfoot -11.2149 7.20903
ltoes -6.27201
558
root 1.04053 17.6746 13.0309 6.11423 2.6025 -2.38498
lowerback -5.94597 -0.958212 0.606113
upperback 0.279603 -1.37811 1.57438
thorax 3.6481 -0.688176 1.16033
lowerneck -9.04093 -4.36787 -4.12637
upperneck 7.88016 -5.76458 4.46986
head 4.07954 -2.73419 1.6721
rclavicle 9.65348e-015 1.13307e-014
rhumerus -25.9725 -18.5167 -82.0201
rradius 22.4773
rwrist 40.4787
rhand -18.4438 -25.9807
rfingers 7.12502
rthumb 7.84202 -55.8152
lclavicle 9.65348e-015 1.13307e-014
lhumerus -23.3054 -1.86451 90.825
lradius 18.4658
lwrist 0.997244
lhand -24.0691 -5.13862
lfingers 7.12502
lthumb 2.41066 24.8275
rfemur -12.47 -3.35387 21.6255
rtibia 20.3564
rfoot -13.6177 2.11591
rtoes 17.6757
lfemur -6.71977 8.15647 -16.8799
ltibia 14.96
lfoot -11.2116 7.21363
ltoes -6.25307
559
root 1.04081 17.6748 13.0302 6.11471 2.59558 -2.38817
lowerback -5.96221 -0.959234 0.604733
upperback 0.280678 -1.37968 1.57488
thorax 3.65842 -0.688973 1.1612
lowerneck -9.08071 -4.34638 -4.12323
upperneck 7.91801 -5.7332 4.44215
head 4.09535 -2.71932 1.66413
rclavicle 2.12824e-014 -1.68967e-015
rhumerus -25.9621 -18.5217 -82.0397
rradius 22.495
rwrist 40.4586
rhand -18.4386 -25.9758
rfingers 7.12502
rthumb 7.847 -55.8101
lclavicle 2.12824e-014 -1.68967e-015
lhumerus -23.2825 -1.9207 90.8241
lradius 18.4796
lwrist 1.03195
lhand -24.1147 -5.22567
lfingers 7.12502
lthumb 2.36658 24.741
rfemur -12.4747 -3.35627 21.6286
rtibia 20.3544
rfoot -13.6124 2.12156
rtoes 17.677
lfemur -6.71928 8.15534 -16.8779
ltibia 14.9561
lfoot -11.2099 7.21825
ltoes -6.23494
